<mxfile host="app.diagrams.net" modified="2022-07-15T10:41:36.719Z" agent="5.0 (Macintosh; Intel Mac OS X 10_13_6) AppleWebKit/605.1.15 (KHTML, like Gecko) Version/13.1.2 Safari/605.1.15" etag="v0eBOmzyRR6t0Hh61Z8k" version="20.0.4" type="github">
  <diagram name="Page-1" id="099fd60b-425b-db50-ffb0-6b813814b670">
    <mxGraphModel dx="746" dy="1639" grid="1" gridSize="10" guides="1" tooltips="1" connect="1" arrows="1" fold="1" page="1" pageScale="1" pageWidth="850" pageHeight="1100" background="none" math="0" shadow="0">
      <root>
        <mxCell id="0" />
        <mxCell id="1" parent="0" />
        <mxCell id="yU-iuNaSgS-8RjuVKIp3-1" value="" style="verticalLabelPosition=bottom;dashed=0;shadow=0;html=1;align=center;verticalAlign=top;shape=mxgraph.cabinets.cabinet;hasStand=1" vertex="1" parent="1">
          <mxGeometry x="260" y="-80" width="250" height="500" as="geometry" />
        </mxCell>
        <mxCell id="yU-iuNaSgS-8RjuVKIp3-2" value="" style="verticalLabelPosition=bottom;dashed=0;shadow=0;html=1;align=center;verticalAlign=top;shape=mxgraph.cabinets.cabinet;hasStand=1" vertex="1" parent="1">
          <mxGeometry x="260" y="-80" width="250" height="500" as="geometry" />
        </mxCell>
        <mxCell id="yU-iuNaSgS-8RjuVKIp3-3" value="Main PC" style="rounded=0;whiteSpace=wrap;html=1;" vertex="1" parent="1">
          <mxGeometry x="280" y="180" width="210" height="20" as="geometry" />
        </mxCell>
        <mxCell id="yU-iuNaSgS-8RjuVKIp3-7" value="Sub PC1" style="rounded=0;whiteSpace=wrap;html=1;" vertex="1" parent="1">
          <mxGeometry x="280" y="200" width="210" height="20" as="geometry" />
        </mxCell>
        <mxCell id="yU-iuNaSgS-8RjuVKIp3-8" value="Sub PC2" style="rounded=0;whiteSpace=wrap;html=1;" vertex="1" parent="1">
          <mxGeometry x="280" y="220" width="210" height="20" as="geometry" />
        </mxCell>
        <mxCell id="yU-iuNaSgS-8RjuVKIp3-9" value="Sub PC3" style="rounded=0;whiteSpace=wrap;html=1;" vertex="1" parent="1">
          <mxGeometry x="280" y="240" width="210" height="20" as="geometry" />
        </mxCell>
        <mxCell id="yU-iuNaSgS-8RjuVKIp3-10" value="Sub PC4" style="rounded=0;whiteSpace=wrap;html=1;" vertex="1" parent="1">
          <mxGeometry x="280" y="260" width="210" height="20" as="geometry" />
        </mxCell>
        <mxCell id="yU-iuNaSgS-8RjuVKIp3-11" value="Sub PC5" style="rounded=0;whiteSpace=wrap;html=1;" vertex="1" parent="1">
          <mxGeometry x="280" y="280" width="210" height="20" as="geometry" />
        </mxCell>
        <mxCell id="yU-iuNaSgS-8RjuVKIp3-12" value="Sub PC6" style="rounded=0;whiteSpace=wrap;html=1;" vertex="1" parent="1">
          <mxGeometry x="280" y="300" width="210" height="20" as="geometry" />
        </mxCell>
        <mxCell id="yU-iuNaSgS-8RjuVKIp3-13" value="Remote PC" style="rounded=0;whiteSpace=wrap;html=1;" vertex="1" parent="1">
          <mxGeometry x="280" y="320" width="210" height="20" as="geometry" />
        </mxCell>
        <mxCell id="yU-iuNaSgS-8RjuVKIp3-14" value="Operator&lt;br&gt;display" style="whiteSpace=wrap;html=1;aspect=fixed;" vertex="1" parent="1">
          <mxGeometry x="310" y="20" width="130" height="130" as="geometry" />
        </mxCell>
        <mxCell id="yU-iuNaSgS-8RjuVKIp3-15" value="HUB" style="rounded=0;whiteSpace=wrap;html=1;" vertex="1" parent="1">
          <mxGeometry x="280" y="340" width="210" height="20" as="geometry" />
        </mxCell>
        <mxCell id="yU-iuNaSgS-8RjuVKIp3-16" value="KVM" style="rounded=0;whiteSpace=wrap;html=1;" vertex="1" parent="1">
          <mxGeometry x="280" y="160" width="210" height="20" as="geometry" />
        </mxCell>
      </root>
    </mxGraphModel>
  </diagram>
</mxfile>
